<svg xmlns="http://www.w3.org/2000/svg" xmlns:xlink="http://www.w3.org/1999/xlink" style="background:0 0" width="191" height="191" class="ldi-n8fyph" preserveAspectRatio="xMidYMid" viewBox="0 0 100 100"><svg xmlns="http://www.w3.org/2000/svg" xmlns:xlink="http://www.w3.org/1999/xlink" style="transform-origin:50px 50px 0" id="圖層_1" x="0" y="0" version="1.1" viewBox="0 0 100 100" xml:space="preserve"><g style="transform-origin:50px 50px 0"><g style="transform-origin:50px 50px 0" fill="#E37C1A"><g style="transform-origin:50px 50px 0;animation-duration:1s;animation-delay:-1s;animation-direction:normal"><g fill="#E37C1A" transform="scale(0.78)"><style style="transform-origin:50px 50px 0px;animation-duration:1s;animation-delay:-1s;animation-direction:normal" class="ld ld-breath" type="text/css">.st1{fill:#fff}.st11{fill-rule:evenodd;clip-rule:evenodd;fill:#666}</style><g style="transform-origin:50px 50px 0;animation-duration:1s;animation-delay:-.916667s;animation-direction:normal" class="ld ld-breath"><path fill="#02B1DC" d="M95,66.552c0-6.877-4.478-12.7-10.673-14.736c0.215-1.436,0.329-2.906,0.329-4.402 c0-16.283-13.2-29.483-29.483-29.483c-13.982,0-25.683,9.737-28.712,22.798c-0.258-0.01-0.51-0.039-0.771-0.039 C14.263,40.69,5,49.953,5,61.379c0,11.427,9.263,20.69,20.69,20.69h55.862v-0.154C89.141,80.901,95,74.418,95,66.552z" class="st11"/></g><g style="transform-origin:50px 50px 0;animation-duration:1s;animation-delay:-.833333s;animation-direction:normal" class="ld ld-breath"><path id="XMLID_1_" fill="#00F6FC" d="M70.492,51.533c0.766,0,1.166,0.949,0.649,1.537L53.022,73.663 c-0.174,0.198-0.411,0.297-0.649,0.297c-0.237,0-0.474-0.099-0.649-0.297L33.607,53.07c-0.517-0.588-0.117-1.537,0.649-1.537h12.598 v-13.69c0-0.709,0.551-1.283,1.231-1.283h8.578c0.68,0,1.231,0.574,1.231,1.283v13.69H70.492z" class="st1"/></g><metadata xmlns:d="https://loading.io/stock/" style="transform-origin:50px 50px 0;animation-duration:1s;animation-delay:-.75s;animation-direction:normal" class="ld ld-breath"><d:name style="transform-origin:50px 50px 0;animation-duration:1s;animation-delay:-.666667s;animation-direction:normal" class="ld ld-breath">download</d:name><d:tags style="transform-origin:50px 50px 0;animation-duration:1s;animation-delay:-.583333s;animation-direction:normal" class="ld ld-breath">cloud,arrow,save,clone,sync,get,retrieve,download,form</d:tags><d:license style="transform-origin:50px 50px 0;animation-duration:1s;animation-delay:-.5s;animation-direction:normal" class="ld ld-breath">cc-by</d:license><d:slug style="transform-origin:50px 50px 0;animation-duration:1s;animation-delay:-.416667s;animation-direction:normal" class="ld ld-breath">n8fyph</d:slug></metadata></g></g></g></g><style style="transform-origin:50px 50px 0px;animation-duration:1s;animation-delay:-0.333333s;animation-direction:normal" class="ld ld-breath" type="text/css">@keyframes ld-breath{0%{-webkit-transform:scale(.86);transform:scale(.86)}50%{-webkit-transform:scale(1.06);transform:scale(1.06)}}@-webkit-keyframes ld-breath{0%{-webkit-transform:scale(.86);transform:scale(.86)}50%{-webkit-transform:scale(1.06);transform:scale(1.06)}}path{stroke-width:0}.ld.ld-breath{-webkit-animation:ld-breath 1s infinite;animation:ld-breath 1s infinite}</style></svg></svg>